PathFileType	4	(X/Y/Z)	C:/Users/opensim2020/Desktop/walking_exp_matlab/subject03_walking11_straight_03.trc																																																																																																																																								
DataRate	CameraRate	NumFrames	NumMarkers	Units	OrigDataRate	OrigDataStartFrame	OrigNumFrames																																																																																																																																				
100	100	8	46	mm	100	2882	380																																																																																																																																				
Frame#	Time	LFHD			RFHD			LBHD			RBHD			C7			T10			CLAV			STRN			RBAK			LSHO			LUPA			LELB			LFRM			LWRA			LWRB			LFIN			RSHO			RUPA			RELB			RFRM			RWRA			RWRB			RFIN			LASI			RASI			LPSI			RPSI			LTHI			LKNE			LTIB			LANK			LHEE			LTOE			RTHI			RKNE			RTIB			RANK			RHEE			RTOE			*39			*40			*41			*42			*43			*44			*45		
		X1	Y1	Z1	X2	Y2	Z2	X3	Y3	Z3	X4	Y4	Z4	X5	Y5	Z5	X6	Y6	Z6	X7	Y7	Z7	X8	Y8	Z8	X9	Y9	Z9	X10	Y10	Z10	X11	Y11	Z11	X12	Y12	Z12	X13	Y13	Z13	X14	Y14	Z14	X15	Y15	Z15	X16	Y16	Z16	X17	Y17	Z17	X18	Y18	Z18	X19	Y19	Z19	X20	Y20	Z20	X21	Y21	Z21	X22	Y22	Z22	X23	Y23	Z23	X24	Y24	Z24	X25	Y25	Z25	X26	Y26	Z26	X27	Y27	Z27	X28	Y28	Z28	X29	Y29	Z29	X30	Y30	Z30	X31	Y31	Z31	X32	Y32	Z32	X33	Y33	Z33	X34	Y34	Z34	X35	Y35	Z35	X36	Y36	Z36	X37	Y37	Z37	X38	Y38	Z38	X39	Y39	Z39	X40	Y40	Z40	X41	Y41	Z41	X42	Y42	Z42	X43	Y43	Z43	X44	Y44	Z44	X45	Y45	Z45	X46	Y46	Z46
																																																																																																																																											
143	1.42	-137.3096	1626.35742	1349.3114	-142.82613	1633.84375	1482.46448	-261.95596	1573.63293	1351.41943	-262.58624	1581.34143	1482.4104	-287.67908	1422.88452	1407.17932	-323.38449	1109.52246	1408.0293	-167.94437	1343.79773	1415.29541	-126.07815	1178.94019	1411.97937	-347.85358	1248.71045	1500.90161	-202.5378	1380.72534	1258.64111	-176.50099	1192.12146	1180.76086	-139.19389	1075.77856	1165.3584	-74.82095	962.97113	1169.49353	-22.85802	857.11615	1203.01514	-39.73624	856.03857	1150.12329	3.2064	784.16962	1161.15088	-220.75275	1369.61963	1572.14856	-220.6636	1147.89502	1646.88159	-201.61327	1037.03735	1661.42688	-176.27615	902.2843	1663.36011	-138.58084	809.90454	1628.32751	-171.17863	802.25824	1671.02454	-140.88329	734.6637	1662.94214	-152.5433	945.42938	1296.09167	-160.57368	947.01056	1535.20129	-316.41046	970.69647	1344.17395	-320.03949	973.73169	1492.73779	-215.35756	643.25281	1266.00659	-217.63228	466.5383	1309.88025	-276.87903	279.37799	1310.4104	-304.0191	71.36092	1356.33301	-346.0015	37.82822	1392.69592	-152.70738	34.75937	1377.67969	-148.09009	657.05951	1587.37109	-78.17519	490.961	1562.66101	-155.57587	314.97375	1565.99341	-231.14511	111.90318	1523.92126	-280.11142	88.51411	1469.88293	-107.13943	45.82605	1513.22229	-228.2569	1680.70667	1396.69324	NaN	NaN	NaN	NaN	NaN	NaN	NaN	NaN	NaN	NaN	NaN	NaN	NaN	NaN	NaN	NaN	NaN	NaN
144	1.43	-130.54773	1625.81775	1349.62329	-136.28331	1633.28833	1482.78101	-255.17348	1572.62952	1351.69116	-255.87943	1580.34924	1482.67139	-280.7742	1422.45911	1407.11707	-316.78851	1109.02771	1407.85974	-161.29141	1343.05518	1415.51868	-119.50747	1178.17334	1412.06189	-341.16284	1248.06018	1500.34717	-195.26746	1380.14111	1258.82214	-168.86273	1191.96619	1180.6084	-130.76091	1075.91882	1164.96899	-64.74704	964.12402	1169.24292	-10.66943	859.53644	1203.05078	-28.12842	857.591	1150.40662	16.32108	786.77649	1161.58691	-214.52904	1368.76086	1572.31128	-215.47754	1146.96521	1646.83606	-197.03232	1036.1709	1661.45544	-172.14035	901.10449	1663.13281	-134.75786	808.59711	1628.04517	-167.38019	801.14844	1670.87634	-137.50099	733.31091	1662.57092	-146.0387	944.79614	1296.0553	-154.00594	946.57794	1535.11475	-309.85431	969.83337	1344.07813	-313.63434	972.98773	1492.63098	-210.02135	642.81079	1266.13916	-214.30878	466.09222	1309.99792	-275.06543	279.31018	1310.5094	-303.86475	71.49887	1356.42603	-346.02039	37.94151	1392.77417	-152.66679	34.70185	1377.79431	-141.06404	657.0235	1587.77856	-69.29073	491.37851	1562.44189	-139.92432	312.61395	1565.79333	-206.64233	106.53371	1523.29333	-254.35677	80.93324	1468.90881	-79.91198	45.85402	1513.38867	-222.21165	1679.59766	1396.56531	NaN	NaN	NaN	NaN	NaN	NaN	NaN	NaN	NaN	NaN	NaN	NaN	NaN	NaN	NaN	NaN	NaN	NaN
145	1.44	-123.97129	1625.05078	1349.95129	-129.71692	1632.65515	1483.11169	-248.30707	1571.51294	1351.94873	-249.18181	1579.28015	1482.94678	-273.86945	1421.95667	1407.16394	-310.14706	1108.44202	1407.85803	-154.53468	1342.29846	1415.86169	-112.92552	1177.38989	1412.24109	-334.83987	1247.53186	1500.04053	-187.99887	1379.61414	1259.04224	-161.30759	1191.60449	1180.49634	-122.51978	1076.11304	1164.56848	-54.85343	965.19672	1169.20093	1.1064	861.81982	1203.31311	-16.7912	859.02191	1150.828	29.10454	789.27484	1162.18762	-208.17471	1367.84473	1572.49988	-210.04916	1145.95898	1646.91821	-192.08388	1034.86218	1661.24792	-167.96443	899.84998	1662.91882	-130.95119	807.20099	1627.88916	-163.67999	799.88171	1670.55469	-134.1106	731.67566	1662.19714	-139.09625	944.28607	1296.1134	-147.36792	946.00812	1535.16211	-303.20474	968.9823	1343.96777	-307.09161	972.1214	1492.5564	-204.63887	642.27869	1266.52466	-211.02092	465.6543	1310.10193	-273.19513	279.2453	1310.55017	-303.62427	71.53839	1356.51331	-346.06567	38.06371	1392.73694	-152.589	34.72935	1377.77734	-134.05112	656.54944	1588.06519	-60.75765	491.53323	1562.28259	-124.48006	310.32553	1565.6239	-182.19563	101.53941	1522.79102	-228.62289	74.06733	1468.2616	-52.96284	46.22745	1513.44629	NaN	NaN	NaN	NaN	NaN	NaN	NaN	NaN	NaN	NaN	NaN	NaN	NaN	NaN	NaN	NaN	NaN	NaN	NaN	NaN	NaN
146	1.45	-117.18456	1624.44214	1350.41394	-123.18581	1631.99036	1483.56799	-241.4138	1570.36218	1352.31738	-242.41298	1578.15942	1483.29175	-266.81104	1421.33984	1407.17578	-303.5806	1107.85889	1407.9884	-147.78539	1341.44885	1416.13647	-106.3718	1176.58765	1412.41541	-328.36816	1246.89465	1499.83667	-180.72731	1378.97815	1259.3429	-153.65851	1191.31824	1180.4823	-114.1248	1075.99768	1164.31482	-45.17336	966.10815	1169.27478	12.46638	863.91425	1203.75598	-5.72832	860.32715	1151.49646	41.55219	791.66095	1163.0094	-201.73975	1366.87134	1572.70007	-204.90848	1144.85339	1646.76392	-187.45793	1033.63733	1661.00891	-163.77927	898.53839	1662.68982	-127.08202	805.76392	1627.6084	-159.91287	798.57056	1670.28406	-130.67722	730.39764	1661.9325	-132.31862	943.6449	1296.24255	-140.72679	945.36163	1535.23999	-296.60132	968.23962	1343.99146	-300.41422	971.14124	1492.52759	-199.26445	641.7558	1266.81995	-207.46825	465.19971	1310.18469	-271.13562	279.12756	1310.63037	-303.46344	71.73255	1356.47876	-346.04178	38.19175	1392.75781	-152.41367	34.70248	1377.56738	-127.30031	655.92889	1588.37378	-52.46589	491.44913	1562.05457	-109.21926	308.18265	1565.6344	-157.77103	97.08726	1522.62402	-203.1707	67.86597	1468.1803	-26.45414	46.82926	1513.45264	-209.73528	1677.38049	1396.88318	NaN	NaN	NaN	NaN	NaN	NaN	NaN	NaN	NaN	NaN	NaN	NaN	NaN	NaN	NaN	NaN	NaN	NaN
147	1.46	-110.46517	1623.7113	1350.8219	-116.52441	1631.22046	1484.04443	-234.44656	1569.1377	1352.68372	-235.59575	1576.95496	1483.65137	-259.82266	1420.76538	1407.46692	-296.86462	1107.15796	1408.13538	-140.94298	1340.66101	1416.4939	-99.69954	1175.72803	1412.64526	-322.1864	1246.39587	1499.82861	-173.45273	1378.30554	1259.66711	-146.16881	1190.854	1180.56091	-106.08652	1075.92456	1164.17981	-35.64977	966.93152	1169.48596	23.44943	865.85431	1204.38013	5.10755	861.55878	1152.21313	53.72636	793.94995	1163.96411	-195.35811	1365.95569	1573.00928	-199.29655	1143.7738	1646.86023	-182.403	1032.42847	1661.04102	-159.49916	897.1449	1662.48523	-123.12545	804.32239	1627.4054	-156.33897	797.12097	1669.92346	-127.25742	728.98602	1661.72034	-125.32201	943.06	1296.51855	-134.04863	944.65582	1535.39014	-289.73416	967.34808	1344.03906	-293.77078	970.17194	1492.59204	-193.77811	641.13275	1267.16992	-203.71761	464.6488	1310.3728	-268.8779	278.97775	1310.63232	-303.17529	71.82327	1356.56274	-346.10687	38.49279	1392.73462	-152.36412	34.70484	1377.7196	-120.82896	655.05664	1588.71741	-44.47316	491.17416	1561.703	-94.13497	306.19235	1565.68555	-133.5712	93.13757	1522.72693	-177.57658	62.2608	1467.99133	-0.34257	47.72485	1513.45813	-202.63553	1676.60352	1397.52734	NaN	NaN	NaN	NaN	NaN	NaN	NaN	NaN	NaN	NaN	NaN	NaN	NaN	NaN	NaN	NaN	NaN	NaN
148	1.47	-103.63783	1622.91467	1351.40344	-109.87666	1630.38525	1484.61121	-227.42986	1567.91772	1353.07568	-228.77849	1575.71338	1484.05115	-252.89037	1419.99756	1407.69373	-290.20026	1106.39685	1408.30591	-134.09892	1339.74866	1416.85449	-93.00734	1174.80603	1412.88147	-315.29208	1245.54651	1499.63196	-166.28749	1377.61108	1260.05115	-138.47169	1190.47852	1180.76025	-98.11566	1075.69458	1164.31897	-26.29713	967.68237	1169.94702	34.03071	867.55359	1205.21155	15.68328	862.70624	1153.12476	65.43826	796.12744	1165.12549	-188.77322	1364.83179	1573.32458	-193.98515	1142.56238	1646.65771	-177.44098	1031.17236	1660.91187	-155.30409	895.83215	1662.25439	-119.10493	802.76776	1627.27209	-152.36877	795.78986	1669.61914	-123.85236	727.29706	1661.33325	-118.87101	942.14954	1296.25195	-127.29081	943.90375	1535.64319	-282.79529	966.30957	1343.953	-287.04352	969.13281	1492.61157	-188.23566	640.46851	1267.56702	-199.75668	464.10178	1310.64063	-266.42886	278.77316	1310.70032	-302.48111	71.73918	1356.85217	-346.04794	38.75422	1392.75635	-152.11105	34.72406	1377.46313	-114.5969	654.0849	1589.10767	-36.85487	490.72696	1561.43262	-79.51891	304.42209	1565.75037	-109.76312	89.67723	1523.02405	-152.49683	57.37753	1468.28748	25.17149	48.78321	1513.55664	-191.05148	1679.33459	1398.34033	NaN	NaN	NaN	NaN	NaN	NaN	NaN	NaN	NaN	NaN	NaN	NaN	NaN	NaN	NaN	NaN	NaN	NaN
149	1.48	-96.82048	1622.02795	1351.9834	-103.19777	1629.49304	1485.1958	-220.41772	1566.67285	1353.55701	-221.87726	1574.42432	1484.48486	-245.85713	1419.21631	1407.95325	-283.39264	1105.57764	1408.55994	-127.15646	1338.79541	1417.30591	-86.29276	1173.82605	1413.14246	-308.61548	1244.74915	1499.62305	-159.07585	1376.85596	1260.49316	-130.89589	1189.99536	1181.06104	-90.11452	1075.4386	1164.48132	-17.26796	968.24097	1170.47314	44.21692	869.10406	1206.24854	25.93236	863.69635	1154.09363	76.78157	798.07831	1166.40149	-182.1506	1363.80493	1573.72119	-188.36429	1141.40857	1646.65552	-172.33049	1029.87598	1660.75317	-150.82288	894.47375	1662.06006	-114.97295	801.26111	1627.16492	-148.6299	794.39722	1669.39758	-120.38361	725.70782	1660.98145	-112.15297	941.39063	1296.46118	-120.39175	943.07587	1535.89246	-275.90677	965.22021	1343.99121	-280.20547	968.06738	1492.70093	-182.53748	639.79272	1267.86707	-195.58397	463.41675	1310.88049	-263.91324	278.64694	1310.83118	-302.58936	72.24982	1356.63452	-345.97739	39.12033	1392.79004	-152.25903	34.6587	1377.83777	-108.30799	653.0141	1589.55933	-29.42983	490.07986	1561.09021	-65.32167	302.76974	1565.92456	-86.27575	86.86638	1523.42639	-127.90127	53.15057	1468.81738	49.90134	50.04112	1514.02478	-189.04533	1674.52429	1398.75085	NaN	NaN	NaN	NaN	NaN	NaN	NaN	NaN	NaN	NaN	NaN	NaN	NaN	NaN	NaN	NaN	NaN	NaN
150	1.49	-89.87085	1621.24658	1352.73108	-96.45792	1628.55396	1485.89465	-213.31306	1565.49011	1354.07959	-215.00163	1573.08606	1485.03735	-238.75667	1418.35559	1408.38257	-276.61935	1104.71655	1408.77917	-120.18442	1337.67883	1417.68042	-79.50083	1172.75781	1413.39233	-301.81845	1243.88623	1499.72156	-151.86369	1376.1438	1260.98291	-123.2496	1189.48352	1181.4248	-82.16579	1075.099	1164.98804	-8.42789	968.64233	1171.14941	54.04959	870.32874	1207.33643	35.91895	864.55988	1155.23206	87.81966	799.84387	1167.78589	-175.38698	1362.67493	1574.1405	-182.62057	1140.15784	1646.64417	-167.23103	1028.56592	1660.59888	-146.37192	893.00958	1661.84155	-110.71873	799.68744	1626.97546	-144.72792	792.85303	1668.86682	-116.81841	724.06641	1660.66895	-105.41831	940.39081	1296.49487	-113.53949	942.24121	1536.1438	-269.203	964.22308	1344.18823	-273.37714	966.99408	1492.84595	-176.46396	638.81262	1268.52893	-191.39194	462.78796	1311.08447	-261.41095	278.52805	1310.95837	-302.24057	72.54299	1356.73816	-345.90268	39.69709	1392.90137	-151.85831	34.68141	1377.57178	-102.01186	651.79095	1590.09534	-22.29298	489.27808	1560.75269	-51.60258	301.26712	1566.16028	-63.28328	84.47569	1524.10376	-103.73904	49.67625	1469.51172	74.18462	51.2451	1514.43835	NaN	NaN	NaN	NaN	NaN	NaN	NaN	NaN	NaN	NaN	NaN	NaN	NaN	NaN	NaN	NaN	NaN	NaN	NaN	NaN	NaN
